<?xml version="1.0" encoding="UTF-8" standalone="no"?>
<svg width="47px" height="38px" viewBox="0 0 47 38" version="1.1" xmlns="http://www.w3.org/2000/svg" xmlns:xlink="http://www.w3.org/1999/xlink" xmlns:sketch="http://www.bohemiancoding.com/sketch/ns">
    <!-- Generator: bin/sketchtool 1.4 (311) - http://www.bohemiancoding.com/sketch -->
    <title>cart</title>
    <desc>Created with bin/sketchtool.</desc>
    <defs></defs>
    <g id="Page-1" stroke="none" stroke-width="1" fill="none" fill-rule="evenodd" sketch:type="MSPage">
        <g id="v2" sketch:type="MSArtboardGroup" transform="translate(-23.000000, -25.000000)" fill="#A76A04">
            <g id="cart" sketch:type="MSLayerGroup" transform="translate(23.000000, 25.000000)">
                <g id="Group" sketch:type="MSShapeGroup">
                    <path d="M-3.55271368e-15,0.0909090909 C2.6294347,0.0909090909 5.2497076,0.1 7.8791423,0.0818181818 C8.19064327,0.0818181818 8.35555556,0.154545455 8.49298246,0.463636364 C11.7729045,7.92727273 15.0619883,15.3818182 18.3419103,22.8454545 C18.5068226,23.2272727 18.6992203,23.3727273 19.1389864,23.3727273 C26.2393762,23.3545455 33.3397661,23.3636364 40.4309942,23.3636364 L41.0081871,23.3636364 L41.0081871,26.2454545 L16.5920078,26.2454545 C15.520078,23.8181818 14.4481481,21.3818182 13.3762183,18.9454545 C11.08577,13.7545455 8.79532164,8.57272727 6.52319688,3.37272727 C6.38576998,3.06363636 6.2208577,2.99090909 5.90935673,2.99090909 C3.93957115,3.00909091 1.96978558,3 -3.55271368e-15,3 L-3.55271368e-15,0.0909090909 L-3.55271368e-15,0.0909090909 Z" id="Shape"></path>
                    <path d="M46.9083821,6.09090909 C46.5693957,6.88181818 46.2212476,7.66363636 45.9097466,8.45454545 C45.8089669,8.71818182 45.6898635,8.81818182 45.3966862,8.81818182 C35.6576998,8.80909091 25.9187135,8.80909091 16.1797271,8.81818182 C15.9140351,8.81818182 15.7766082,8.75454545 15.6758285,8.49090909 C15.3551657,7.64545455 15.0070175,6.80909091 14.6497076,5.9 L46.9175439,5.9 C46.9083821,5.97272727 46.9083821,6.02727273 46.9083821,6.09090909 L46.9083821,6.09090909 Z" id="Shape"></path>
                    <path d="M44.5721248,11.7454545 C44.1964912,12.6909091 43.8483431,13.5727273 43.4818713,14.4454545 C43.4360624,14.5454545 43.2253411,14.6272727 43.0879142,14.6272727 C42.1259259,14.6454545 41.1639376,14.6363636 40.2019493,14.6363636 L18.7267057,14.6363636 L18.1495127,14.6363636 C17.7647173,13.6818182 17.3890838,12.7272727 16.9951267,11.7454545 C26.202729,11.7454545 35.3553606,11.7454545 44.5721248,11.7454545 L44.5721248,11.7454545 Z" id="Shape"></path>
                    <path d="M42.2358674,17.5636364 C41.8510721,18.5 41.5120858,19.3818182 41.1272904,20.2545455 C41.0814815,20.3636364 40.8432749,20.4454545 40.6966862,20.4454545 C39.4140351,20.4636364 38.131384,20.4545455 36.8487329,20.4545455 C31.5532164,20.4545455 26.2576998,20.4545455 20.9621832,20.4636364 C20.6048733,20.4636364 20.4307992,20.3727273 20.3025341,20.0272727 C20.0093567,19.2090909 19.6612086,18.4 19.3222222,17.5636364 C26.9814815,17.5636364 34.5766082,17.5636364 42.2358674,17.5636364 L42.2358674,17.5636364 Z" id="Shape"></path>
                    <path d="M17.5723197,33.5545455 C17.5723197,31.1272727 19.5054581,29.1818182 21.9333333,29.1818182 C24.4711501,29.1818182 26.3859649,31.0545455 26.3859649,33.5272727 C26.3859649,36 24.4803119,37.9 21.9974659,37.9 C19.5237817,37.9090909 17.5723197,35.9909091 17.5723197,33.5545455 L17.5723197,33.5545455 Z" id="Shape"></path>
                    <path d="M32.2311891,33.5636364 C32.2220273,31.1727273 34.1551657,29.2454545 36.491423,29.1636364 C38.9925926,29.0727273 40.9898635,31.1272727 41.0631579,33.3818182 C41.145614,35.9363636 39.0109162,37.8454545 36.8120858,37.9181818 C34.5216374,38.0090909 32.2403509,36.2 32.2311891,33.5636364 L32.2311891,33.5636364 Z" id="Shape"></path>
                </g>
            </g>
        </g>
    </g>
</svg>